<?xml version="1.0" encoding="UTF-8"?>
<svg width="30px" height="26px" viewBox="0 0 30 26" version="1.1" xmlns="http://www.w3.org/2000/svg" xmlns:xlink="http://www.w3.org/1999/xlink">
    <!-- Generator: Sketch 51.3 (57544) - http://www.bohemiancoding.com/sketch -->
    <title>Group 59</title>
    <desc>Created with Sketch.</desc>
    <defs></defs>
    <g id="hero.md" stroke="none" stroke-width="1" fill="none" fill-rule="evenodd">
        <g id="Group-59" transform="translate(0.000000, -2.000000)">
            <rect id="Rectangle-8-Copy-2" x="0" y="0" width="30" height="30"></rect>
            <g id="Group-52" transform="translate(0.000000, 3.000000)" stroke="#2D2E2C" stroke-width="0.7">
                <g id="Group-5">
                    <g id="Group-21">
                        <path d="M6.09046988,23.9453455 L23.4536024,14.6689818 C23.539988,14.6228 23.6180602,14.5664364 23.6889036,14.4984364 C23.9693855,14.2308 24.5513133,13.4682545 24.2881807,12.5624364 C24.1696265,12.1551636 23.7044458,11.9595273 23.3144458,12.1220727 L21.9940843,12.6726182 L23.0838434,11.9238909 C24.3546867,11.2788 24.0966145,10.3177091 23.5501084,9.55698182 C23.1080602,8.94134545 22.5254096,9.12970909 20.7890241,9.70316364 L22.1625181,9.1428 C22.9201084,8.83370909 23.3603494,7.98170909 23.0831205,7.20825455 C23.0108313,7.00789091 22.8948072,6.81770909 22.7144458,6.65952727 C22.5351687,6.50243636 22.286494,6.44970909 22.0573373,6.51370909 L18.6807108,7.46061818 L21.9680602,6.27589091 C22.5984217,6.04861818 23.0636024,5.45989091 23.056012,4.78607273 C23.0505904,4.34389091 22.8778193,3.86861818 22.3107108,3.5268 C21.8151687,3.22716364 21.2101084,3.17298182 20.6487831,3.31261818 L14.9458916,4.73334545" id="Stroke-1" stroke-linecap="round" stroke-linejoin="round"></path>
                        <path d="M20.1392169,3.43963636 L19.2833133,0.127272727 L12.1143976,1.58181818 C12.1143976,1.58181818 12.7772892,3.58181818 16.5724699,3.15781818 L16.5825904,4.32581818" id="Stroke-3" stroke-linejoin="round"></path>
                        <polyline id="Stroke-5" stroke-linecap="round" stroke-linejoin="round" points="9.82528916 3.15770909 11.1507108 0.127163636 19.283241 0.127163636"></polyline>
                        <path d="M29.7048072,17.7031636 L23.5602289,14.6122545" id="Stroke-7" stroke-linecap="round" stroke-linejoin="round"></path>
                        <path d="M24.8856506,23.9453455 L15.4421566,18.9493455" id="Stroke-9" stroke-linecap="round" stroke-linejoin="round"></path>
                        <path d="M0.126614458,17.7031636 L5.83962651,14.4820727" id="Stroke-11" stroke-linecap="round"></path>
                        <path d="M11.8361928,7.32636364 C11.6536627,7.29727273 11.3558313,7.24345455 11.1711325,7.23472727 C9.87643373,7.17109091 8.60595181,6.60490909 7.35426506,5.66309091 C7.19161446,5.54090909 7.0253494,5.42127273 6.8453494,5.32745455 C5.85354217,4.81181818 5.97028916,4.23254545 6.24896386,3.53654545 C6.5453494,2.79618182 7.38968675,2.43472727 8.12559036,2.73290909 C9.62595181,3.68272727 11.0605301,4.32127273 12.4036627,4.52090909 C12.5666747,4.54527273 12.7267952,4.594 12.8641446,4.686 C13.4193253,5.05945455 13.6604096,5.78890909 13.4016145,6.43581818 C13.1464337,7.07290909 12.484988,7.42963636 11.8361928,7.32636364 Z" id="Stroke-13"></path>
                        <path d="M10.7162169,10.1836 C9.4966988,10.1039636 7.92838554,9.35269091 6.23898795,8.36905455 C5.50308434,8.07050909 5.14380723,7.22105455 5.43983133,6.48069091 C5.73657831,5.74032727 6.58127711,5.37887273 7.31718072,5.67669091 C8.43693976,6.5236 9.86428916,7.17087273 11.7936867,7.4916 C12.5299518,7.78978182 12.8892289,8.6396 12.5928434,9.3796 C12.2964578,10.1199636 11.6010361,10.2879636 10.7162169,10.1836 Z" id="Stroke-15"></path>
                        <path d="M10.2347349,12.8828364 C8.72895181,12.8032 7.20943373,12.2046545 5.67943373,11.2766545 C4.93087952,11.0126545 4.53328916,10.1802909 4.79533735,9.4272 C5.05810843,8.67447273 5.70690361,8.19301818 6.45545783,8.45665455 C8.10003614,9.47447273 9.65895181,10.1446545 11.0855783,10.2784727 C11.834494,10.5421091 12.3354578,11.2399273 12.0726867,11.9933818 C11.8102771,12.7464727 11.2091928,13.1272 10.2347349,12.8828364 Z" id="Stroke-17"></path>
                        <path d="M8.87331325,14.7624364 C8.47427711,14.8784364 8.04813253,14.8468 7.64945783,14.7300727 C6.92114458,14.5162545 6.21018072,14.0780727 5.4796988,13.5995273 C5.205,13.4191636 4.94801205,13.2093455 4.73150602,12.9613455 C4.43512048,12.6213455 4.35451807,12.3911636 4.51210843,11.9889818 C4.72210843,11.4522545 5.20391566,11.1228 5.73704819,11.3340727 C6.89584337,12.1148 8.00295181,12.6417091 9.02945783,12.7780727 C9.56222892,12.9893455 9.90487952,13.5071636 9.69451807,14.0431636 C9.54740964,14.4191636 9.27415663,14.6460727 8.87331325,14.7624364 Z" id="Stroke-19"></path>
                    </g>
                </g>
            </g>
        </g>
    </g>
</svg>