<?xml version="1.0" encoding="UTF-8"?>
<svg width="28px" height="21px" viewBox="0 0 28 21" version="1.1" xmlns="http://www.w3.org/2000/svg" xmlns:xlink="http://www.w3.org/1999/xlink">
    <!-- Generator: Sketch 51.3 (57544) - http://www.bohemiancoding.com/sketch -->
    <title>Group 56</title>
    <desc>Created with Sketch.</desc>
    <defs></defs>
    <g id="hero.md" stroke="none" stroke-width="1" fill="none" fill-rule="evenodd">
        <g id="Group-56" transform="translate(-1.000000, -4.000000)">
            <rect id="Rectangle-8-Copy-5" x="0" y="0" width="30" height="30"></rect>
            <g id="Group-55" transform="translate(1.000000, 4.000000)" fill="#2D2E2C">
                <path d="M25.3648387,16.828 C23.7981935,17.7226452 22.282129,18.611871 20.669871,19.4112258 C20.7267742,18.326 20.8130323,17.242129 20.8405806,16.156 C22.8696774,14.9059355 25.1751613,14.2271613 27.1807742,12.9477419 C27.1694839,13.6667097 27.1527742,14.3856774 27.1595484,15.1046452 C27.1690323,16.1799355 26.2192903,16.3402581 25.3648387,16.828 Z M11.4547097,15.4930323 C11.8403871,14.901871 12.115871,14.2172258 12.3394194,13.4810968 C12.7079355,13.8270323 13.0796129,14.1702581 13.4521935,14.512129 C12.7910323,14.848129 12.1235484,15.1719355 11.4547097,15.4930323 Z M2.08509677,14.078129 C-0.175677419,11.1403871 0.286774194,5.22696774 3.92858065,3.46567742 C4.17154839,3.34825806 4.42490323,3.25251613 4.68367742,3.17393548 C4.70896774,3.17348387 4.73290323,3.17709677 4.76045161,3.17032258 C4.87606452,3.14141935 4.99845161,3.10709677 5.11677419,3.07593548 C6.88754839,2.69206452 8.87103226,3.15045161 10.1793548,4.39825806 C11.3020645,5.46858065 12.1890323,6.89070968 13.1857419,8.08025806 C15.4668387,10.802129 17.8536129,13.4332258 20.2141935,16.0864516 C20.1893548,17.1621935 20.104,18.2356774 20.0457419,19.3105161 C17.3907097,17.2362581 14.8508387,14.9944516 12.4026452,12.6821935 C12.3516129,12.6343226 12.2965161,12.614 12.2409677,12.6045161 C12.1140645,12.5656774 11.9740645,12.5945806 11.9085806,12.745871 L11.908129,12.7463226 C11.9040645,12.7558065 11.9054194,12.7657419 11.9018065,12.7752258 C11.8932258,12.7910323 11.8882581,12.8068387 11.8823871,12.8235484 C11.8805806,12.8226452 11.8787742,12.8217419 11.8769677,12.8208387 C11.2401935,15.1886452 9.90612903,17.0750323 7.16348387,16.9530968 C5.33941935,16.8727097 3.16309677,15.4790323 2.08509677,14.078129 Z M5.85877419,1.20941935 C6.01277419,0.897806452 6.63058065,0.871612903 6.90741935,0.915870968 C7.27412903,0.974129032 7.56496774,1.32729032 7.76593548,1.6483871 C7.2696129,1.79651613 6.78412903,1.94419355 6.31174194,2.08509677 C6.2963871,2.05574194 6.28012903,2.0263871 6.25122581,1.99929032 C6.05296774,1.81412903 5.70522581,1.52103226 5.85877419,1.20941935 Z M18.5658065,2.5583871 C21.8323226,5.29741935 24.5004516,8.8863871 27.0520645,12.2825161 C26.020129,12.9712258 24.9299355,13.4896774 23.7823871,13.9787742 C23.287871,14.1896774 22.7901935,14.3942581 22.3038065,14.6250323 C21.9673548,14.7844516 20.8839355,15.6005161 20.5443226,15.5124516 C20.0466452,15.3828387 19.1280645,13.9268387 18.7807742,13.5375484 C18.0297419,12.6961935 17.2800645,11.8525806 16.5349032,11.0053548 C15.0400645,9.30503226 13.5515484,7.59387097 12.1447742,5.81903226 C11.0758065,4.47006452 10.1590323,3.22858065 8.45916129,2.64825806 C8.12496774,2.53445161 7.80296774,2.45406452 7.4863871,2.38903226 C11.2158065,1.26541935 15.5589677,0.037483871 18.5658065,2.5583871 Z M27.8175484,12.3574839 C27.8189032,12.3245161 27.8112258,12.2938065 27.7990323,12.2621935 C27.7931613,12.2445806 27.7872903,12.2269677 27.7787097,12.2111613 C27.7769032,12.2093548 27.7773548,12.2066452 27.776,12.2043871 C26.286129,10.2231613 24.7628387,8.26587097 23.1433548,6.38896774 C21.6774194,4.69 20.0850323,2.68077419 18.1742581,1.46909677 C15.3792258,-0.303483871 11.709871,0.499483871 8.38870968,1.46548387 C8.38464516,1.45735484 8.38509677,1.44922581 8.38012903,1.44109677 C7.87883871,0.575354839 7.11832258,0.0555483871 6.09090323,0.350903226 C5.66864516,0.471935484 5.26445161,0.770903226 5.16058065,1.22432258 C5.06935484,1.62174194 5.34845161,1.98754839 5.628,2.27116129 C-0.468322581,2.86232258 -1.92929032,13.2963871 3.97283871,16.4536129 C5.72825806,17.3929677 7.25019355,17.8956129 9.21922581,17.2335484 C9.30864516,17.2037419 9.38316129,17.1612903 9.4676129,17.1274194 C9.5163871,17.127871 9.56651613,17.1201935 9.61890323,17.0930968 C11.0446452,16.3623871 12.5074194,15.7070968 13.9331613,14.9754839 C13.9376774,14.9736774 13.9394839,14.9696129 13.9435484,14.9673548 C15.9523226,16.7909677 18.0234194,18.5527097 20.1694839,20.2056129 C20.2932258,20.3009032 20.4151613,20.2765161 20.5009677,20.1988387 C22.9604516,19.0255484 25.1909677,17.4927742 27.6630968,16.3506452 C27.7570323,16.3072903 27.823871,16.1799355 27.8184516,16.0792258 C27.7543226,14.8413548 27.8107742,13.6016774 27.8184516,12.3629032 C27.8184516,12.3606452 27.8175484,12.3597419 27.8175484,12.3574839 Z" id="Fill-109"></path>
                <path d="M17.8197419,3.81703226 C18.3395484,3.76509677 18.7532258,4.18419355 19.101871,4.5743871 C17.8472903,5.10593548 16.5272258,5.42387097 15.2649677,5.93825806 C15.0644516,6.01954839 14.4660645,6.39529032 14.2985161,6.35554839 C14.1241935,6.31354839 13.7534194,5.80819355 13.4883226,5.44058065 C14.5243226,4.96458065 15.6063871,4.62812903 16.682129,4.24922581 C17.0249032,4.12819355 17.4670323,3.85316129 17.8197419,3.81703226 Z M12.7345806,5.44509677 C12.7359355,5.44690323 12.7368387,5.44916129 12.7377419,5.45096774 C12.7508387,5.47987097 12.762129,5.50922581 12.7851613,5.53632258 C13.5081935,6.38716129 13.770129,7.21451613 14.876129,6.79180645 C16.506,6.16948387 18.2090323,5.70522581 19.7919355,4.96503226 C19.9807097,4.87651613 19.9852258,4.60554839 19.8556129,4.47096774 C19.0363871,3.62193548 18.6656129,2.82167742 17.533871,3.25251613 C15.9952258,3.83780645 14.3965161,4.28806452 12.9143226,5.01290323 C12.9093548,5.01516129 12.9043871,5.01741935 12.8989677,5.02012903 C12.8827097,5.02780645 12.8655484,5.03412903 12.8492903,5.04180645 C12.6880645,5.12174194 12.6659355,5.27167742 12.7174194,5.39948387 C12.7210323,5.41529032 12.7282581,5.42974194 12.7345806,5.44509677 Z" id="Fill-111"></path>
                <path d="M6.16496774,12.9463871 C4.54367742,12.465871 4.05548387,11.3223871 4.15980645,9.78283871 C4.26548387,8.22612903 4.67825806,6.29232258 6.77690323,6.63916129 C8.33767742,6.95845161 9.06567742,8.44470968 9.04309677,9.90477419 C9.01645161,11.6484516 8.31554839,13.5840645 6.16496774,12.9463871 Z M6.944,6.03219355 C4.79929032,5.67812903 3.86941935,7.12554839 3.61380645,9.00425806 C3.31890323,11.1751613 3.78270968,12.81 5.99741935,13.5533548 C10.3613548,15.0183871 11.0898065,6.87987097 6.944,6.03219355 Z" id="Fill-112"></path>
                <path d="M21.0555484,14.5902581 C22.6077419,13.7723871 24.1879355,13.042129 25.824129,12.4089677 C26.1980645,12.2644516 26.0359355,11.6556774 25.6570323,11.802 C23.9702581,12.4545806 22.3385806,13.2038065 20.7376129,14.0469677 C20.3794839,14.2357419 20.6969677,14.7790323 21.0555484,14.5902581" id="Fill-113"></path>
                <path d="M3.61019355,4.564 C2.02774194,5.72283871 1.37741935,7.49451613 1.34625806,9.41341935 C1.33993548,9.81896774 1.96903226,9.81896774 1.97580645,9.41341935 C2.00290323,7.73974194 2.534,6.1283871 3.92812903,5.10774194 C4.25148387,4.87064516 3.93806452,4.32464516 3.61019355,4.564" id="Fill-114"></path>
                <path d="M4.72703226,4.57483871 C5.13212903,4.57483871 5.13258065,3.94574194 4.72703226,3.94574194 C4.32193548,3.94574194 4.32148387,4.57483871 4.72703226,4.57483871" id="Fill-115"></path>
            </g>
        </g>
    </g>
</svg>