<?xml version="1.0" encoding="UTF-8"?>
<svg width="27px" height="30px" viewBox="0 0 27 30" version="1.1" xmlns="http://www.w3.org/2000/svg" xmlns:xlink="http://www.w3.org/1999/xlink">
    <!-- Generator: Sketch 51.3 (57544) - http://www.bohemiancoding.com/sketch -->
    <title>Group 57</title>
    <desc>Created with Sketch.</desc>
    <defs></defs>
    <g id="hero.md" stroke="none" stroke-width="1" fill="none" fill-rule="evenodd">
        <g id="Group-57" transform="translate(-2.000000, 0.000000)">
            <rect id="Rectangle-8-Copy-4" x="0" y="0" width="30" height="30"></rect>
            <g id="Group-54" transform="translate(2.000000, 1.000000)">
                <path d="M9.6897261,0.00625278813 C6.69786612,-0.170118812 3.48584074,3.40032103 1.72596172,8.73408231 C-0.0341798789,14.067449 -0.738394059,20.8565062 3.30965591,23.2364048 C3.30965591,23.2364048 5.7738804,24.8229601 9.20593988,20.2826737 C9.20593988,20.2826737 13.4297808,16.9767255 16.0258157,18.2109322 C16.0258157,18.2109322 16.4219034,18.784107 16.6857868,19.1365871 L16.4219034,19.7980135 C16.4219034,19.7980135 15.9378546,19.4894619 15.409694,20.3707938 C14.8819272,21.2525202 14.2216936,22.8836616 14.2216936,22.8836616 C14.2216936,22.8836616 14.1338637,23.1478902 14.4858395,23.4125134 C14.4858395,23.4125134 13.5618538,25.3518118 13.4738927,25.9690467 C13.4738927,25.9690467 14.0459026,27.0710733 14.7498542,27.3796249 C15.4536745,27.6881766 17.3017772,28.2170283 18.2258943,27.8203566 C18.2258943,27.8203566 19.5458363,23.3683218 20.3376178,22.0019351 C20.3376178,22.0019351 21.041832,22.5307869 21.7456523,21.5612034 C22.4497352,20.5912254 22.801711,19.6655704 22.801711,19.6655704 C22.801711,19.6655704 24.9138284,19.6216419 25.5296876,17.0209171 C26.1459406,14.4201922 25.8817947,14.023389 24.2978379,13.2741056 C22.7138812,12.5245592 19.9857733,10.4528176 18.5777388,11.5547127 C18.5777388,11.5547127 15.3217328,10.1008636 13.4738927,5.86899734 C13.4738927,5.86899734 12.6818487,0.182624388 9.6897261,0.00625278813 Z" id="Fill-1" stroke="#2D2E2C" stroke-width="0.5"></path>
                <path d="M10.0908377,16.6792453 C9.86079099,16.6792453 9.52049343,16.5845488 9.1572327,16.4532257 C9.52049343,16.5845488 9.86079099,16.6791121 10.0908377,16.6791121 C10.23083,16.6791121 10.329876,16.6440837 10.3683323,16.5608414 C10.5932607,16.0736405 12.1114582,12.3105536 12.4769322,10.0096018 C12.4769322,10.0096018 12.5913331,9.93874592 12.5911948,9.84804506 C12.5913331,9.93874592 12.4769322,10.0096018 12.4769322,10.0096018 C12.1114582,12.3105536 10.5932607,16.0736405 10.3683323,16.5608414 C10.329876,16.6440837 10.23083,16.6792453 10.0908377,16.6792453 M12.1958409,9.60351233 C11.852085,9.52066955 11.0700923,9.40972414 10.3857622,9.3208879 C10.3857622,9.32075472 10.3857622,9.32075472 10.3857622,9.32075472 C11.0702306,9.40972414 11.852085,9.52053636 12.1958409,9.60351233" id="Fill-6" fill="#D5D3CD"></path>
                <path d="M20.9402516,22.8160377 C20.635341,22.7548283 20.4402516,22.5660377 20.4402516,22.5660377 C20.4402516,22.5660377 20.6380057,22.7501577 20.9402516,22.8160377" id="Fill-11" fill="#D5D3CD"></path>
                <path d="M22.4025157,21.5849911 C22.4030157,21.5842328 22.4035157,21.5834744 22.4040157,21.5827161 C22.4035157,21.5834744 22.4030157,21.5842328 22.4025157,21.5849911 M22.4042552,21.5821475 C22.4045552,21.5816058 22.4049552,21.5810641 22.4052552,21.5806308 C22.4049552,21.5810641 22.4045552,21.5816058 22.4042552,21.5821475 M22.4056467,21.5797412 C22.4059467,21.5793079 22.4062467,21.5788746 22.4065467,21.5784412 C22.4062467,21.5788746 22.4060467,21.5793079 22.4056467,21.5797412 M22.4069513,21.5776559 C22.4072513,21.5772226 22.4075513,21.5767893 22.4078513,21.5763559 C22.4075513,21.5767893 22.4072513,21.5772226 22.4069513,21.5776559 M22.4084298,21.5752538 C22.4086298,21.5748205 22.4089298,21.5744955 22.4091298,21.5740621 C22.4089298,21.5744955 22.4086298,21.5749288 22.4084298,21.5752538 M22.4095604,21.5732809 C22.4098604,21.5728476 22.4102604,21.5723059 22.4105604,21.5718726 C22.4102604,21.5723059 22.4098604,21.5728476 22.4095604,21.5732809 M22.410865,21.5710995 C22.411265,21.5705578 22.411665,21.5700161 22.412065,21.5694745 C22.411665,21.5700161 22.411265,21.5705578 22.410865,21.5710995 M22.4121696,21.5691144 C22.4124696,21.5685727 22.4127696,21.568031 22.4131696,21.5675977 C22.4127696,21.568031 22.4124696,21.5685727 22.4121696,21.5691144 M22.4136481,21.5665835 C22.4137481,21.5663669 22.4139481,21.5661502 22.4140481,21.5658252 C22.4139481,21.5661502 22.4138481,21.5662585 22.4136481,21.5665835 M22.4148657,21.5644901 C22.4150657,21.5642734 22.4150657,21.5641651 22.4152657,21.5639484 C22.4151657,21.5640568 22.4149657,21.5643818 22.4148657,21.5644901 M22.4166921,21.561499 C22.4169921,21.5610656 22.4172921,21.5606323 22.4175921,21.5600906 C22.4172921,21.5606323 22.4169921,21.5610656 22.4166921,21.561499 M22.4176488,21.5599472 C22.4180488,21.5592972 22.4183488,21.5588639 22.4187488,21.5582139 C22.4184488,21.5587555 22.4180488,21.5594055 22.4176488,21.5599472 M22.4194752,21.5567867 C22.4196752,21.55657 22.4198752,21.556245 22.4200752,21.55592 C22.4198752,21.556245 22.4196752,21.5564617 22.4194752,21.5567867 M22.4206058,21.5549221 C22.4209058,21.5545971 22.4211058,21.5541638 22.4214058,21.5537305 C22.4211058,21.5541638 22.4209058,21.5545971 22.4206058,21.5549221 M22.4218234,21.5529533 C22.4221234,21.5524116 22.4224234,21.5519783 22.4228234,21.5514366 C22.4225234,21.5519783 22.4221234,21.55252 22.4218234,21.5529533 M22.423215,21.5505308 C22.423415,21.5503141 22.423615,21.5499891 22.423815,21.5496641 C22.423615,21.5499891 22.423415,21.5502058 22.423215,21.5505308 M22.4245196,21.5483575 C22.4248196,21.5479242 22.4251196,21.5474909 22.4254196,21.5470575 C22.4251196,21.5474909 22.4248196,21.5479242 22.4245196,21.5483575 M22.4256502,21.5466842 C22.4271502,21.5444092 22.4286502,21.5422425 22.4301502,21.5399675 C22.4286502,21.5422425 22.4271502,21.5445175 22.4256502,21.5466842 M22.4295639,21.5401236 C22.4311639,21.5378486 22.4326639,21.5355736 22.4341639,21.5331903 C22.4326639,21.5355736 22.4311639,21.5378486 22.4295639,21.5401236 M22.4336516,21.5331633 C22.4341516,21.532405 22.4345516,21.531755 22.4349516,21.531105 C22.4345516,21.531755 22.4341516,21.5325133 22.4336516,21.5331633 M22.4351301,21.5305445 C22.4355301,21.5300028 22.4359301,21.5294612 22.4363301,21.5288112 C22.4359301,21.5294612 22.4355301,21.5300028 22.4351301,21.5305445 M22.4363477,21.5284984 C22.5579341,21.3237223 22.6627349,21.1226997 22.7510111,20.9386722 C22.8084124,20.8188719 22.858856,20.7062659 22.9022548,20.6045034 C22.9023418,20.6042949 22.9024288,20.6039821 22.9025157,20.6037736 C22.7925836,20.8617248 22.6372522,21.1900547 22.4363477,21.5284984" id="Fill-12" fill="#D5D3CD"></path>
                <path d="M22.4025157,21.1037736 C22.5975494,20.9216273 22.7625107,20.7517524 22.8975245,20.6037736 C22.8991466,20.604736 22.9007688,20.6056985 22.9025157,20.606661 C22.7758624,20.7482234 22.6255005,20.9028592 22.4510558,21.0603825 C22.4510558,21.0604627 22.4508062,21.0606231 22.4508062,21.0606231 C22.4503071,21.0611044 22.449808,21.0615054 22.4493088,21.0619064 C22.4491841,21.0620668 22.4490593,21.0622272 22.4488097,21.0623876 C22.4483106,21.0628689 22.4478115,21.0633501 22.4471875,21.0639115 C22.4471875,21.0639115 22.4471875,21.0639917 22.4470628,21.0639917 C22.445191,21.0657563 22.4433193,21.0674406 22.4413228,21.0691249 L22.4413228,21.0692051 C22.4394511,21.0708894 22.4375794,21.0724935 22.4357076,21.0741778 C22.4355829,21.0743382 22.4354581,21.0744986 22.4352085,21.0746591 C22.4348342,21.0749799 22.4344598,21.0753007 22.4340855,21.0756215 C22.4337111,21.0759423 22.4333368,21.0763434 22.4329624,21.0766642 C22.4327129,21.0769048 22.4324633,21.0771454 22.4322138,21.0773058 C22.4319642,21.0775464 22.4317146,21.0777871 22.4314651,21.0780277 C22.4309659,21.0784287 22.4305916,21.0787495 22.4302172,21.0791505 C22.4299677,21.0793912 22.4297181,21.0796318 22.4294686,21.0797922 C22.4290942,21.080113 22.4288446,21.0804338 22.4284703,21.0806745 C22.4282207,21.0809953 22.4278464,21.0812359 22.4275968,21.0814765 C22.4273473,21.0817171 22.4270977,21.0819577 22.4268481,21.0821181 C22.4264738,21.0825192 22.4259747,21.0829202 22.4256003,21.083241 C22.4251012,21.0837223 22.4247269,21.0840431 22.4242277,21.0845243 C22.4241029,21.0846045 22.4241029,21.0846045 22.4239782,21.0846847 C22.4236038,21.0850857 22.4232295,21.0854066 22.4228551,21.0857274 C22.4221064,21.086369 22.4214825,21.0870107 22.4207338,21.0876523 C22.4204843,21.0878127 22.4204843,21.0878929 22.4202347,21.0880533 C22.4198604,21.0883742 22.419486,21.0887752 22.4189869,21.089096 C22.4188621,21.0893366 22.4186126,21.089497 22.4184878,21.0896574 C22.4181134,21.0898981 22.4178639,21.0902189 22.4176143,21.0904595 C22.4171152,21.0907803 22.4167408,21.0911813 22.4163665,21.0915824 C22.4162417,21.0916626 22.4161169,21.0917428 22.4159921,21.0919032 C22.415493,21.0923042 22.4149939,21.0927052 22.4144948,21.0931063 C22.41437,21.0933469 22.4141204,21.0935073 22.4138709,21.0937479 C22.4134965,21.0940687 22.4129974,21.0944698 22.412623,21.0947906 C22.4123735,21.0950312 22.4121239,21.0952718 22.4118743,21.0954322 C22.4116248,21.0957531 22.4112504,21.0959937 22.4110009,21.0963145 C22.4106265,21.0965551 22.410377,21.0968759 22.4100026,21.0971967 C22.4096283,21.0975176 22.4092539,21.0978384 22.4088796,21.0981592 C22.40863,21.0983998 22.4083805,21.0985602 22.4081309,21.0988009 C22.4077566,21.0991217 22.4073822,21.0994425 22.4070079,21.0997633 C22.4067583,21.1000039 22.4065087,21.1002446 22.4062592,21.1004852 C22.4058848,21.100806 22.4053857,21.101207 22.4050114,21.101608 C22.4047618,21.1017685 22.404637,21.1019289 22.4043874,21.1020893 C22.4037635,21.1026507 22.4031396,21.1032121 22.4025157,21.1037736" id="Fill-13" fill="#D5D3CD"></path>
                <path d="M17.0715393,20.1457075 C17.0715393,20.1457075 17.0487893,20.1312075 17.0062893,20.1132075 C17.0487893,20.1312075 17.0715393,20.1457075 17.0715393,20.1457075" id="Fill-14" fill="#D5D3CD"></path>
                <path d="M14.5534591,22.5754717 C14.6046142,22.4447788 14.6806593,22.3182949 14.7516164,22.2100497 L14.7238387,22.2084309 C14.7304393,22.1584633 14.7743062,22.1219858 14.8034591,22.0754717 L14.7843447,22.157492 C14.6942732,22.316784 14.6154778,22.4607512 14.5534591,22.5754717" id="Fill-15" fill="#BDBDB8"></path>
                <path d="M22.8930818,20.3632075 C22.9892536,20.2710001 23.0728203,20.186905 23.1430818,20.1132075 C23.0728203,20.1866765 22.9899538,20.2704288 22.893782,20.3624077 C22.8935486,20.3626362 22.8933152,20.362979 22.8930818,20.3632075" id="Fill-23" fill="#A4A8A4"></path>
                <path d="M16.7137928,20.2912075 C16.6790927,20.2622075 16.6184307,20.2242075 16.5388989,20.2242075 C16.531427,20.2242075 16.5237018,20.2244575 16.5157233,20.2252075 C16.5237018,20.2244575 16.531427,20.2242075 16.5390256,20.2242075 C16.6184307,20.2242075 16.6790927,20.2622075 16.7137928,20.2912075 M22.8924485,20.1162075 C22.8925752,20.1152075 22.8928285,20.1142075 22.8930818,20.1132075 C22.8928285,20.1142075 22.8925752,20.1152075 22.8924485,20.1162075" id="Fill-24" fill="#D5D3CD"></path>
                <path d="M22.8930818,21.1037736 C22.9878201,20.9248344 23.0710576,20.7566597 23.1426505,20.6047096 C23.1427942,20.6043976 23.142938,20.6040856 23.1430818,20.6037736 C23.0713451,20.7560357 22.9879639,20.9245224 22.8930818,21.1037736" id="Fill-25" fill="#B9B9B4"></path>
                <path d="M22.8987124,21.1037736 C22.8967417,21.101898 22.8949117,21.1000224 22.8930818,21.0981468 C22.9900694,20.9144957 23.0734027,20.7480374 23.1430818,20.6037736 C23.0729804,20.7560087 22.991477,20.9244988 22.8987124,21.1037736" id="Fill-26" fill="#B9B9B4"></path>
                <path d="M23.3838978,20.1164575 C23.3838978,20.1162075 23.3836478,20.1162075 23.3836478,20.1159575 C23.3841478,20.1152075 23.3843978,20.1142075 23.3848978,20.1132075 C23.3848978,20.1134575 23.3848978,20.1134575 23.3851478,20.1134575 C23.3846478,20.1144575 23.3841478,20.1154575 23.3838978,20.1164575" id="Fill-29" fill="#B9B9B4"></path>
                <path d="M23.3856478,20.1172075 C23.3851478,20.1159575 23.3843978,20.1144575 23.3836478,20.1132075 C23.3846478,20.1137075 23.3858978,20.1142075 23.3868978,20.1144575 C23.3863978,20.1154575 23.3861478,20.1164575 23.3856478,20.1172075" id="Fill-30" fill="#B9B9B4"></path>
                <path d="M17.7468553,20.8537736 C17.6609142,20.7980109 17.5778922,20.735977 17.4968553,20.6693668 C17.5254635,20.6280109 17.5546554,20.6037736 17.5840809,20.6037736 C17.591087,20.6037736 17.5980931,20.6051295 17.6052159,20.6080109 C17.6955943,20.6447905 17.7354121,20.7375024 17.7468553,20.8537736" id="Fill-32" fill="#8F9592"></path>
                <path d="M22.8930818,20.6132075 C23.0278963,20.3610336 23.1111577,20.1831508 23.1430818,20.1132075 C23.1113734,20.1829618 23.0278963,20.3610336 22.8930818,20.6132075" id="Fill-33" fill="#A4A8A4"></path>
                <path d="M22.8930818,20.6132075 C23.0350432,20.3567523 23.1184512,20.1701173 23.1429698,20.1132075 C23.1429698,20.1133108 23.1430818,20.1133108 23.1430818,20.1134141 C23.1265121,20.1516294 23.0832967,20.24882 23.0133236,20.3866015 C22.9796245,20.4532199 22.9395439,20.5292373 22.8934176,20.6125878 C22.8933057,20.6127944 22.8931937,20.613001 22.8930818,20.6132075" id="Fill-34" fill="#8F9592"></path>
                <path d="M9.29368703,20.1132075 C9.26647019,20.1132075 9.23854087,20.1065557 9.21431645,20.0921828 C9.15304294,20.0555975 9.13879328,19.9844461 9.18282472,19.9333691 C13.3130873,15.1209679 13.7856059,7.05781439 13.7895958,6.97692272 C13.7933007,6.91408616 13.8547167,6.8644346 13.9322348,6.86811689 C14.0076155,6.8709677 14.0660391,6.92406399 14.0627617,6.98690055 C14.0583443,7.06850492 13.5828333,15.1979397 9.40497684,20.0658129 C9.37832999,20.0968154 9.3362935,20.1132075 9.29368703,20.1132075" id="Fill-40" stroke="#2D2E2C" stroke-width="0.2" fill="#2D2E2C"></path>
                <path d="M16.0388921,24.5239538 C16.0078647,24.5159589 15.2728271,24.2533646 14.5984317,23.6472951 C14.5433335,23.5977828 14.5386029,23.5127844 14.587579,23.4573812 C14.6365551,23.4019779 14.7208719,23.397209 14.7758309,23.4461603 C15.2749142,23.8948565 15.8210041,24.1707756 16.0242828,24.2385218 C16.8795559,23.1181138 17.5791351,20.9684676 17.7058886,20.564655 C17.4874441,20.3116235 16.8605928,20.2084798 16.6393655,20.0986551 C16.5735538,20.0656937 16.5462831,19.9854642 16.578841,19.91884 C16.611399,19.8520756 16.6914026,19.8245844 16.7573534,19.8572653 C16.850575,19.9036918 17.7153499,20.0992677 17.9635698,20.4607214 C17.9869447,20.4945244 17.9934841,20.5368833 17.9816575,20.5761565 C17.9493778,20.6840175 17.1766127,23.2307437 16.1760809,24.4783688 C16.1503406,24.5103484 16.1117997,24.5283019 16.0722849,24.5283019 L16.0388921,24.5239538 Z" id="Fill-42" stroke="#2D2E2C" stroke-width="0.2" fill="#2D2E2C"></path>
                <path d="M17.9030644,19.1320755 C17.8747335,19.1320755 17.8461391,19.1224207 17.8228155,19.1025673 C17.8162269,19.0969921 17.1377351,18.5314419 16.1385113,18.4248319 C16.0693313,18.4172169 16.0185992,18.3533052 16.0258467,18.2817786 C16.0329623,18.2101159 16.0955538,18.1587146 16.1643386,18.1653778 C17.0394335,18.2587976 17.6725959,18.668512 17.8960805,18.8331865 C18.1966514,18.546264 19.3503115,17.3606349 20.2948501,15.2595734 C21.2774707,13.074067 20.0826979,11.964044 19.8907067,11.8046728 C19.2752017,11.7476963 18.6969881,11.5454907 18.672215,11.5366518 C18.6063292,11.5132629 18.5711462,11.4392886 18.5935474,11.3711615 C18.6162121,11.3028984 18.6881594,11.2665911 18.7539134,11.290252 C18.7599749,11.2917478 19.3514974,11.4987128 19.9482909,11.5482103 C19.970692,11.5498421 19.9923026,11.5575931 20.0107506,11.5713273 C20.0274856,11.5834297 21.671863,12.8158367 20.5241326,15.3691751 C19.408291,17.8509869 18.0418198,19.051846 17.9843674,19.1016155 C17.9607803,19.1220128 17.9319224,19.1320755 17.9030644,19.1320755" id="Fill-44" stroke="#2D2E2C" stroke-width="0.2" fill="#2D2E2C"></path>
                <path d="M4.15397336,22.5660377 C3.61449812,22.5660377 3.15163323,22.3520084 2.80970509,21.9425782 C2.7653787,21.8895993 2.77114369,21.8095365 2.82238807,21.7640883 C2.87376057,21.7187722 2.9512677,21.7243211 2.99559409,21.7774321 C3.31510282,22.1595141 3.73953442,22.3384004 4.25774324,22.3095989 C5.41509762,22.2449937 6.90464372,21.1356083 7.96437756,19.5491488 C9.2416438,17.6370213 11.697659,12.444828 11.851264,6.48054364 C11.9014835,4.52455327 11.471415,3.07826981 10.5729729,2.18198891 C9.55743731,1.16904881 8.27837752,1.23523936 8.26607886,1.2362963 C8.19779572,1.24118462 8.1402739,1.18728094 8.13604624,1.11752322 C8.13194669,1.04789763 8.18319107,0.987784451 8.25083366,0.983424594 C8.3074587,0.979593204 9.6449371,0.906796805 10.7401577,1.99649681 C11.6927907,2.94403906 12.1488658,4.45492767 12.0965965,6.4872816 C11.9417103,12.5110185 9.45815132,17.7590973 8.16666476,19.6927599 C7.06593542,21.3403895 5.50041952,22.4939019 4.27093867,22.5624706 C4.2316086,22.5648487 4.19253476,22.5660377 4.15397336,22.5660377" id="Fill-45" stroke="#2D2E2C" stroke-width="0.2" fill="#2D2E2C"></path>
                <path d="M9.23445845,17.1698113 C9.21752278,17.1698113 9.20045376,17.1663923 9.18378479,17.1595543 L6.05735292,15.8294258 C6.04321763,15.8236398 6.03028251,15.8149608 6.01908096,15.8041777 C5.21883709,15.0396333 5.01494226,13.5999649 5.47380564,11.9525255 C5.99574441,10.0794312 7.80346078,9.35933396 7.88000469,9.32961483 C7.90147432,9.32133029 7.92454418,9.31870028 7.94708062,9.3223823 L11.5026384,9.88678282 C11.5723814,9.89769736 11.6197213,9.96252715 11.6083864,10.0311705 C11.5974515,10.0998138 11.5315758,10.1470225 11.4619662,10.1354504 L7.94268001,9.57696743 C7.70531389,9.67980089 6.17190207,10.3992406 5.72050639,12.0190648 C5.28991357,13.5648542 5.46207069,14.9035302 6.18043659,15.6073213 L9.28526547,16.9281132 C9.34980772,16.9554654 9.37994522,17.0295002 9.35194135,17.0936725 C9.33113848,17.1411442 9.28393195,17.1698113 9.23445845,17.1698113" id="Fill-46" stroke="#2D2E2C" stroke-width="0.2" fill="#2D2E2C"></path>
                <path d="M6.37543641,15.6981132 C6.34413171,15.6981132 6.31616039,15.6924564 6.29050793,15.6812713 C6.22210136,15.650673 6.19413004,15.5767486 6.22862318,15.5158091 C6.25760901,15.464512 6.32137784,15.4387991 6.38195822,15.4504985 C6.54413395,15.4187431 7.64487088,14.826062 8.53343153,12.8461728 C9.44344169,10.8184577 8.27444313,9.57627012 8.22415271,9.52445874 C8.17429708,9.47290448 8.18081889,9.39499456 8.23879055,9.35089702 C8.29690715,9.30628523 8.38429943,9.3118135 8.43444491,9.36336775 C8.48922813,9.41955032 9.76663371,10.764975 8.79155035,12.9371963 C7.76472729,15.2256397 6.52355401,15.6676435 6.5110901,15.6717575 C6.45935039,15.6893708 6.41471221,15.6981132 6.37543641,15.6981132" id="Fill-47" stroke="#2D2E2C" stroke-width="0.2" fill="#2D2E2C"></path>
                <path d="M18.3420587,26.990566 L18.3118746,26.9884 C17.6478249,26.8921919 16.6486326,26.6681877 16.6064032,26.6588016 C16.5355486,26.6428271 16.4985625,26.5934595 16.5235033,26.548424 C16.5484441,26.5033885 16.6259591,26.4795621 16.6969555,26.4955366 C16.7068751,26.4978832 17.7234976,26.7256779 18.3722428,26.81972 C18.4452231,26.8301891 18.4912786,26.8766687 18.4745569,26.9230579 C18.4602443,26.9633101 18.4044108,26.990566 18.3420587,26.990566" id="Fill-50" stroke="#2D2E2C" stroke-width="0.3" fill="#2D2E2C"></path>
                <path d="M18.8328182,26.009434 L18.8024927,26.0072678 C18.1383082,25.9111434 17.1391264,25.6870339 17.0968975,25.6775568 C17.0261853,25.6617617 16.9891996,25.6122103 17.0139984,25.5671718 C17.0390807,25.5221332 17.1164532,25.4983955 17.1874488,25.5144614 C17.1976518,25.5165373 18.2141219,25.7446182 18.8630019,25.8384861 C18.935698,25.8491365 18.9817531,25.8954386 18.9651733,25.9421018 C18.9507191,25.9822664 18.8948862,26.009434 18.8328182,26.009434" id="Fill-52" stroke="#2D2E2C" stroke-width="0.3" fill="#2D2E2C"></path>
            </g>
        </g>
    </g>
</svg>