<?xml version="1.0" encoding="UTF-8"?>
<svg width="29px" height="30px" viewBox="0 0 29 30" version="1.1" xmlns="http://www.w3.org/2000/svg" xmlns:xlink="http://www.w3.org/1999/xlink">
    <!-- Generator: Sketch 51.3 (57544) - http://www.bohemiancoding.com/sketch -->
    <title>Group 58</title>
    <desc>Created with Sketch.</desc>
    <defs>
        <path d="M1.21268864,13.8495423 L3.58399634,12.4881338 L4.72487546,14.4530282 L2.35346154,15.8144366 L1.21268864,13.8495423 Z M6.83443956,10.622007 L7.97521245,12.5869014 L5.60390476,13.9483099 L4.46313187,11.9833099 L6.83443956,10.622007 Z M10.0848828,8.75588028 L11.2256557,10.7207746 L8.85434799,12.0821831 L7.71357509,10.1171831 L10.0848828,8.75588028 Z M13.3352198,6.88964789 L14.4760989,8.85454225 L12.104685,10.2160563 L10.9639121,8.25105634 L13.3352198,6.88964789 Z M16.585663,5.02352113 L17.7264359,6.98830986 L15.3549158,8.34982394 L14.2143553,6.38492958 L16.585663,5.02352113 Z M19.8361062,3.15739437 L20.9768791,5.1221831 L18.6055714,6.48369718 L17.4646923,4.51869718 L19.8361062,3.15739437 Z M23.0864432,1.29126761 L24.2271099,3.25605634 L21.8559084,4.61757042 L20.7151355,2.65257042 L23.0864432,1.29126761 Z M2.67522344,19.2905282 L5.41322711,19.2905282 L5.41322711,17.0087324 L2.67522344,17.0087324 L2.67522344,19.2905282 Z M5.92088645,20.3130634 C5.95976557,20.3130634 5.99747619,20.3082042 6.03401832,20.2999648 L9.5609707,20.2999648 C9.59751282,20.3082042 9.63511722,20.3130634 9.67410256,20.3130634 C9.71308791,20.3130634 9.75090476,20.3082042 9.78723443,20.2999648 L13.3140806,20.2999648 C13.3507289,20.3082042 13.3885458,20.3130634 13.4273187,20.3130634 C13.4664103,20.3130634 13.5041209,20.3082042 13.540663,20.2999648 L17.0672967,20.2999648 C17.1038388,20.3082042 17.1415495,20.3130634 17.1804286,20.3130634 C17.2196264,20.3130634 17.2574432,20.3082042 17.2938791,20.2999648 L20.8205128,20.2999648 C20.8569487,20.3082042 20.8948718,20.3130634 20.9338571,20.3130634 C20.9730549,20.3130634 21.0106593,20.3082042 21.0472015,20.2999648 L24.5738352,20.2999648 C24.6102711,20.3082042 24.6480879,20.3130634 24.6870733,20.3130634 C24.7261648,20.3130634 24.7639817,20.3082042 24.8005238,20.2999648 L27.9328425,20.2999648 L27.9328425,28.8961268 L2.67522344,28.8961268 L2.67522344,20.2999648 L5.80775458,20.2999648 C5.8442967,20.3082042 5.88200733,20.3130634 5.92088645,20.3130634 Z M6.42833333,17.0087324 L9.16654945,17.0087324 L9.16665568,19.2905282 L6.42833333,19.2905282 L6.42833333,17.0087324 Z M10.1817619,19.2905282 L12.9198718,19.2905282 L12.9198718,17.0087324 L10.1817619,17.0087324 L10.1817619,19.2905282 Z M13.934978,19.2905282 L16.6729817,19.2905282 L16.6729817,17.0087324 L13.934978,17.0087324 L13.934978,19.2905282 Z M17.6880879,19.2905282 L20.426304,19.2905282 L20.426304,17.0087324 L17.6880879,17.0087324 L17.6880879,19.2905282 Z M24.1796264,17.0087324 L24.1796264,19.2904225 L21.4414103,19.2905282 L21.4414103,17.0087324 L24.1796264,17.0087324 Z M25.1946264,17.0087324 L27.9328425,17.0087324 L27.9327363,19.2904225 L25.1946264,19.2904225 L25.1946264,17.0087324 Z M2.16767033,29.9049296 L28.4403956,29.9049296 C28.7208352,29.9049296 28.9479487,29.6788732 28.9479487,29.4010563 L28.9479487,16.5039085 C28.9479487,16.2251408 28.7208352,15.9990845 28.4403956,15.9990845 L4.06191209,15.9990845 L5.57586081,15.1299296 C5.61091575,15.1189437 5.64543956,15.105 5.67858242,15.0860915 C5.71215018,15.0668662 5.74242491,15.043838 5.7698315,15.0185915 L8.82630403,13.2636972 C8.86135897,13.2527113 8.89588278,13.2389789 8.92902564,13.2198592 C8.96269963,13.2006338 8.99308059,13.1777113 9.02038095,13.1523592 L12.0767473,11.3975704 C12.1119084,11.3865845 12.1462198,11.3728521 12.1791502,11.3536268 C12.2131429,11.3344014 12.2433114,11.3114789 12.2708242,11.2862324 L15.3270842,9.53144366 C15.362033,9.52045775 15.3965568,9.50672535 15.4295934,9.48760563 C15.4633736,9.46827465 15.4937546,9.44535211 15.5212674,9.42 L18.5774212,7.6653169 C18.61237,7.65454225 18.647,7.64049296 18.6802491,7.62147887 C18.7140293,7.60214789 18.7444103,7.57911972 18.7718168,7.55387324 L21.8278645,5.79908451 C21.8628132,5.78830986 21.8974432,5.7743662 21.9304799,5.75535211 C21.9643663,5.73602113 21.9945348,5.71299296 22.0221538,5.68774648 L25.174337,3.87802817 C25.4170659,3.73848592 25.5002418,3.42982394 25.3601282,3.18855634 L23.7118022,0.34943662 C23.6444542,0.233556338 23.5336593,0.148943662 23.4035311,0.114190141 C23.2734029,0.0795422535 23.1350952,0.0977112676 23.0183516,0.164788732 L19.8660623,1.97450704 C19.8302637,1.98538732 19.7951026,2.00017606 19.7614286,2.01950704 C19.7277546,2.03883803 19.6973736,2.0618662 19.669967,2.08711268 L16.615619,3.8406338 C16.580033,3.85161972 16.5448718,3.86630282 16.5109853,3.8856338 C16.4773114,3.90507042 16.4469304,3.92799296 16.41963,3.95334507 L13.3652821,5.70676056 C13.3294835,5.71774648 13.2944286,5.73242958 13.2606484,5.7518662 C13.2268681,5.77109155 13.1965934,5.79411972 13.1691868,5.8193662 L10.1149451,7.57288732 C10.0792527,7.58387324 10.0439853,7.59866197 10.0103114,7.61809859 C9.97653114,7.63732394 9.94615018,7.66024648 9.91874359,7.68549296 L6.86450183,9.43890845 C6.82880952,9.45 6.79354212,9.46478873 6.7597619,9.48411972 C6.72598168,9.50355634 6.69570696,9.52647887 6.66830037,9.55183099 L3.61405861,11.3053521 C3.5783663,11.3162324 3.5430989,11.3309155 3.50942491,11.3502465 C3.47585714,11.3696831 3.44547619,11.3926056 3.41796337,11.4177465 L0.265567766,13.2276761 C0.14903663,13.2946479 0.0640549451,13.4048239 0.0291062271,13.5341197 C-0.00584249084,13.6635211 0.0125347985,13.801162 0.0798827839,13.9171479 L1.66001099,16.6390141 L1.66001099,19.7953521 C1.66001099,19.7955634 1.66022344,19.7959859 1.66022344,19.7965141 L1.66022344,29.4010563 C1.66022344,29.6788732 1.887337,29.9049296 2.16767033,29.9049296 Z" id="path-1"></path>
        <path d="M4.5970411,22.9413636 L11.4379178,22.9413636 C11.7270137,22.9413636 11.9614247,22.7469091 11.9614247,22.507 C11.9614247,22.2670909 11.7270137,22.0727273 11.4379178,22.0727273 L4.5970411,22.0727273 C4.30783562,22.0727273 4.07342466,22.2670909 4.07342466,22.507 C4.07342466,22.7469091 4.30783562,22.9413636 4.5970411,22.9413636" id="path-3"></path>
        <path d="M4.64857143,24.9575 L8.36416667,24.9575 C8.67821429,24.9575 8.93297619,24.7438 8.93297619,24.4799 C8.93297619,24.2159 8.67821429,24.002 8.36416667,24.002 L4.64857143,24.002 C4.33440476,24.002 4.0797619,24.2159 4.0797619,24.4799 C4.0797619,24.7438 4.33440476,24.9575 4.64857143,24.9575" id="path-5"></path>
        <path d="M4.56358621,27.98 L9.46082759,27.98 C9.73372414,27.98 9.95489655,27.766 9.95489655,27.502 C9.95489655,27.238 9.73372414,27.024 9.46082759,27.024 L4.56358621,27.024 C4.29058621,27.024 4.06931034,27.238 4.06931034,27.502 C4.06931034,27.766 4.29058621,27.98 4.56358621,27.98" id="path-7"></path>
    </defs>
    <g id="hero.md" stroke="none" stroke-width="1" fill="none" fill-rule="evenodd">
        <g id="Group-58">
            <rect id="Rectangle-8-Copy-3" x="0" y="0" width="30" height="30"></rect>
            <g id="Group-53">
                <g id="Group-2">
                    <mask id="mask-2" fill="white">
                        <use xlink:href="#path-1"></use>
                    </mask>
                    <g id="Clip-133"></g>
                    <path d="M1.21268864,13.8495423 L3.58399634,12.4881338 L4.72487546,14.4530282 L2.35346154,15.8144366 L1.21268864,13.8495423 Z M6.83443956,10.622007 L7.97521245,12.5869014 L5.60390476,13.9483099 L4.46313187,11.9833099 L6.83443956,10.622007 Z M10.0848828,8.75588028 L11.2256557,10.7207746 L8.85434799,12.0821831 L7.71357509,10.1171831 L10.0848828,8.75588028 Z M13.3352198,6.88964789 L14.4760989,8.85454225 L12.104685,10.2160563 L10.9639121,8.25105634 L13.3352198,6.88964789 Z M16.585663,5.02352113 L17.7264359,6.98830986 L15.3549158,8.34982394 L14.2143553,6.38492958 L16.585663,5.02352113 Z M19.8361062,3.15739437 L20.9768791,5.1221831 L18.6055714,6.48369718 L17.4646923,4.51869718 L19.8361062,3.15739437 Z M23.0864432,1.29126761 L24.2271099,3.25605634 L21.8559084,4.61757042 L20.7151355,2.65257042 L23.0864432,1.29126761 Z M2.67522344,19.2905282 L5.41322711,19.2905282 L5.41322711,17.0087324 L2.67522344,17.0087324 L2.67522344,19.2905282 Z M5.92088645,20.3130634 C5.95976557,20.3130634 5.99747619,20.3082042 6.03401832,20.2999648 L9.5609707,20.2999648 C9.59751282,20.3082042 9.63511722,20.3130634 9.67410256,20.3130634 C9.71308791,20.3130634 9.75090476,20.3082042 9.78723443,20.2999648 L13.3140806,20.2999648 C13.3507289,20.3082042 13.3885458,20.3130634 13.4273187,20.3130634 C13.4664103,20.3130634 13.5041209,20.3082042 13.540663,20.2999648 L17.0672967,20.2999648 C17.1038388,20.3082042 17.1415495,20.3130634 17.1804286,20.3130634 C17.2196264,20.3130634 17.2574432,20.3082042 17.2938791,20.2999648 L20.8205128,20.2999648 C20.8569487,20.3082042 20.8948718,20.3130634 20.9338571,20.3130634 C20.9730549,20.3130634 21.0106593,20.3082042 21.0472015,20.2999648 L24.5738352,20.2999648 C24.6102711,20.3082042 24.6480879,20.3130634 24.6870733,20.3130634 C24.7261648,20.3130634 24.7639817,20.3082042 24.8005238,20.2999648 L27.9328425,20.2999648 L27.9328425,28.8961268 L2.67522344,28.8961268 L2.67522344,20.2999648 L5.80775458,20.2999648 C5.8442967,20.3082042 5.88200733,20.3130634 5.92088645,20.3130634 Z M6.42833333,17.0087324 L9.16654945,17.0087324 L9.16665568,19.2905282 L6.42833333,19.2905282 L6.42833333,17.0087324 Z M10.1817619,19.2905282 L12.9198718,19.2905282 L12.9198718,17.0087324 L10.1817619,17.0087324 L10.1817619,19.2905282 Z M13.934978,19.2905282 L16.6729817,19.2905282 L16.6729817,17.0087324 L13.934978,17.0087324 L13.934978,19.2905282 Z M17.6880879,19.2905282 L20.426304,19.2905282 L20.426304,17.0087324 L17.6880879,17.0087324 L17.6880879,19.2905282 Z M24.1796264,17.0087324 L24.1796264,19.2904225 L21.4414103,19.2905282 L21.4414103,17.0087324 L24.1796264,17.0087324 Z M25.1946264,17.0087324 L27.9328425,17.0087324 L27.9327363,19.2904225 L25.1946264,19.2904225 L25.1946264,17.0087324 Z M2.16767033,29.9049296 L28.4403956,29.9049296 C28.7208352,29.9049296 28.9479487,29.6788732 28.9479487,29.4010563 L28.9479487,16.5039085 C28.9479487,16.2251408 28.7208352,15.9990845 28.4403956,15.9990845 L4.06191209,15.9990845 L5.57586081,15.1299296 C5.61091575,15.1189437 5.64543956,15.105 5.67858242,15.0860915 C5.71215018,15.0668662 5.74242491,15.043838 5.7698315,15.0185915 L8.82630403,13.2636972 C8.86135897,13.2527113 8.89588278,13.2389789 8.92902564,13.2198592 C8.96269963,13.2006338 8.99308059,13.1777113 9.02038095,13.1523592 L12.0767473,11.3975704 C12.1119084,11.3865845 12.1462198,11.3728521 12.1791502,11.3536268 C12.2131429,11.3344014 12.2433114,11.3114789 12.2708242,11.2862324 L15.3270842,9.53144366 C15.362033,9.52045775 15.3965568,9.50672535 15.4295934,9.48760563 C15.4633736,9.46827465 15.4937546,9.44535211 15.5212674,9.42 L18.5774212,7.6653169 C18.61237,7.65454225 18.647,7.64049296 18.6802491,7.62147887 C18.7140293,7.60214789 18.7444103,7.57911972 18.7718168,7.55387324 L21.8278645,5.79908451 C21.8628132,5.78830986 21.8974432,5.7743662 21.9304799,5.75535211 C21.9643663,5.73602113 21.9945348,5.71299296 22.0221538,5.68774648 L25.174337,3.87802817 C25.4170659,3.73848592 25.5002418,3.42982394 25.3601282,3.18855634 L23.7118022,0.34943662 C23.6444542,0.233556338 23.5336593,0.148943662 23.4035311,0.114190141 C23.2734029,0.0795422535 23.1350952,0.0977112676 23.0183516,0.164788732 L19.8660623,1.97450704 C19.8302637,1.98538732 19.7951026,2.00017606 19.7614286,2.01950704 C19.7277546,2.03883803 19.6973736,2.0618662 19.669967,2.08711268 L16.615619,3.8406338 C16.580033,3.85161972 16.5448718,3.86630282 16.5109853,3.8856338 C16.4773114,3.90507042 16.4469304,3.92799296 16.41963,3.95334507 L13.3652821,5.70676056 C13.3294835,5.71774648 13.2944286,5.73242958 13.2606484,5.7518662 C13.2268681,5.77109155 13.1965934,5.79411972 13.1691868,5.8193662 L10.1149451,7.57288732 C10.0792527,7.58387324 10.0439853,7.59866197 10.0103114,7.61809859 C9.97653114,7.63732394 9.94615018,7.66024648 9.91874359,7.68549296 L6.86450183,9.43890845 C6.82880952,9.45 6.79354212,9.46478873 6.7597619,9.48411972 C6.72598168,9.50355634 6.69570696,9.52647887 6.66830037,9.55183099 L3.61405861,11.3053521 C3.5783663,11.3162324 3.5430989,11.3309155 3.50942491,11.3502465 C3.47585714,11.3696831 3.44547619,11.3926056 3.41796337,11.4177465 L0.265567766,13.2276761 C0.14903663,13.2946479 0.0640549451,13.4048239 0.0291062271,13.5341197 C-0.00584249084,13.6635211 0.0125347985,13.801162 0.0798827839,13.9171479 L1.66001099,16.6390141 L1.66001099,19.7953521 C1.66001099,19.7955634 1.66022344,19.7959859 1.66022344,19.7965141 L1.66022344,29.4010563 C1.66022344,29.6788732 1.887337,29.9049296 2.16767033,29.9049296 Z" id="Fill-132" stroke="#2D2E2C" stroke-width="0.8" mask="url(#mask-2)"></path>
                    <mask id="mask-4" fill="white">
                        <use xlink:href="#path-3"></use>
                    </mask>
                    <g id="Clip-139"></g>
                    <path d="M4.5970411,22.9413636 L11.4379178,22.9413636 C11.7270137,22.9413636 11.9614247,22.7469091 11.9614247,22.507 C11.9614247,22.2670909 11.7270137,22.0727273 11.4379178,22.0727273 L4.5970411,22.0727273 C4.30783562,22.0727273 4.07342466,22.2670909 4.07342466,22.507 C4.07342466,22.7469091 4.30783562,22.9413636 4.5970411,22.9413636" id="Fill-138" fill="#5A5D57" mask="url(#mask-4)"></path>
                    <mask id="mask-6" fill="white">
                        <use xlink:href="#path-5"></use>
                    </mask>
                    <g id="Clip-142"></g>
                    <path d="M4.64857143,24.9575 L8.36416667,24.9575 C8.67821429,24.9575 8.93297619,24.7438 8.93297619,24.4799 C8.93297619,24.2159 8.67821429,24.002 8.36416667,24.002 L4.64857143,24.002 C4.33440476,24.002 4.0797619,24.2159 4.0797619,24.4799 C4.0797619,24.7438 4.33440476,24.9575 4.64857143,24.9575" id="Fill-141" fill="#5A5D57" mask="url(#mask-6)"></path>
                    <mask id="mask-8" fill="white">
                        <use xlink:href="#path-7"></use>
                    </mask>
                    <g id="Clip-145"></g>
                    <path d="M4.56358621,27.98 L9.46082759,27.98 C9.73372414,27.98 9.95489655,27.766 9.95489655,27.502 C9.95489655,27.238 9.73372414,27.024 9.46082759,27.024 L4.56358621,27.024 C4.29058621,27.024 4.06931034,27.238 4.06931034,27.502 C4.06931034,27.766 4.29058621,27.98 4.56358621,27.98" id="Fill-144" fill="#5A5D57" mask="url(#mask-8)"></path>
                </g>
            </g>
        </g>
    </g>
</svg>