<?xml version="1.0" encoding="UTF-8"?>
<svg width="28px" height="25px" viewBox="0 0 28 25" version="1.1" xmlns="http://www.w3.org/2000/svg" xmlns:xlink="http://www.w3.org/1999/xlink">
    <!-- Generator: Sketch 51.3 (57544) - http://www.bohemiancoding.com/sketch -->
    <title>Group 60</title>
    <desc>Created with Sketch.</desc>
    <defs></defs>
    <g id="hero.md" stroke="none" stroke-width="1" fill="none" fill-rule="evenodd">
        <g id="Group-60" transform="translate(-1.000000, -2.000000)">
            <rect id="Rectangle-8-Copy" x="0" y="0" width="30" height="30"></rect>
            <g id="Group-51" transform="translate(1.000000, 2.000000)" fill="#2D2E2C">
                <path d="M21.6048173,0.149118458 C18.5175581,-0.308903523 15.1809728,1.29697763 14.1069155,4.15587606 C13.570602,2.78835328 12.4531629,1.6498415 11.1526621,0.937103214 C8.97356059,-0.258427632 6.83212018,-0.275252929 4.49951379,0.68846271 C2.69797699,1.43251475 1.28449284,3.38798819 0.536037485,5.08874532 C-0.410257976,7.23770968 0.0683720704,9.86853185 0.656171719,12.0474079 C0.765341322,12.4526171 1.40653396,12.2810925 1.29688764,11.8744812 C0.315791387,8.2397496 0.478353983,4.2269162 3.85689098,1.79285653 C5.44390236,0.650138422 8.17552603,0.247733395 9.94083187,1.038055 C11.7905177,1.86623352 13.6301924,3.48707049 13.7717791,5.6047211 C13.7999058,6.0258209 14.3986701,6.02067984 14.4358545,5.6047211 C14.7848158,1.72695745 19.6378575,-0.344423595 23.0388005,1.23621961 C26.6528388,2.91547775 28.1778761,7.67096108 26.9884519,11.2753137 C26.2376129,13.549533 23.2595234,12.9835487 21.3001912,12.9957003 C20.1870426,13.0022435 19.0738941,13.0134603 17.9612222,13.004113 C17.8110544,13.0027108 17.1956048,13.004113 17.2132436,13.0148624 C17.0382862,12.909237 16.5877828,11.6062112 16.482427,11.3412127 C16.3422704,10.9878815 15.8774653,11.0603237 15.829793,11.4276761 C15.6119305,13.1158142 15.1604737,14.7572155 14.8053149,16.4187136 C14.4596906,13.6257142 14.3176271,10.8098138 13.8428109,8.03130287 C13.7879877,7.71022011 13.27265,7.7317191 13.202095,8.03130287 C12.7449175,9.97088575 12.28774,11.9104686 11.8305625,13.8500515 C11.6265249,12.9494307 11.4224874,12.04881 11.2179732,11.1486566 C11.1502785,10.8490728 10.6287434,10.8271064 10.577734,11.1486566 C10.5062255,11.595929 10.3922887,12.8124915 10.0838488,13.0246772 C9.87361391,13.1695617 9.07986985,13.0186014 8.80527732,13.0167319 C7.59916774,13.009254 6.39305816,13.0017761 5.18694858,12.9938308 C3.86928578,12.9854182 1.79983057,12.728365 1.85846751,14.6651437 C1.8889778,15.68027 2.84814478,16.7084826 3.46073404,17.4595451 C4.34839255,18.547581 5.40814812,19.4855914 6.52463375,20.3422794 C8.8214859,22.1037946 11.3833961,23.4685131 13.8642634,24.9561498 C13.9672356,25.0178426 14.0959509,25.0112994 14.1993998,24.9561498 C18.6939457,22.5505997 22.319902,19.4327786 25.512517,15.5087454 C25.7761449,15.1839237 25.3094329,14.7202933 25.0424679,15.0479192 C22.9310611,17.6436887 20.5984547,20.1020516 17.8058105,21.9977017 C16.9152916,22.6020103 14.9664474,24.3387549 13.8585428,24.1891967 C13.3379611,24.1186239 12.6204927,23.4666436 12.1652221,23.2021126 C11.4672994,22.7969033 10.7712836,22.3893572 10.0843255,21.9673227 C8.57311314,21.0381924 7.09145758,20.0445651 5.76139998,18.875207 C4.96288869,18.1727508 0.977483125,14.431459 3.60375098,13.6350616 C4.59485842,13.3345431 6.21428697,13.6518869 7.25402017,13.6584301 C8.28517236,13.6649732 9.31632454,13.6719838 10.347,13.6775922 C10.4971678,13.6780596 10.6234994,13.5752383 10.667358,13.4382991 C10.7469707,13.1905933 10.8180025,12.9456918 10.8899877,12.7003229 C11.0949786,13.6032805 11.2994929,14.5057707 11.5040071,15.408261 C11.5750388,15.7204637 12.0722611,15.7176595 12.1451997,15.408261 C12.5794945,13.5654236 13.0137893,11.7221188 13.4480841,9.87928135 C13.8232652,12.7736999 13.9567477,15.6952258 14.4496795,18.5765579 C14.5168974,18.9719524 15.0594084,18.8191226 15.1018367,18.4900946 C15.3540233,16.5257411 15.922754,14.6230804 16.2893541,12.6806933 C16.5157976,13.1672249 16.8242375,13.553272 17.4315828,13.64955 C18.9361211,13.8893105 20.6976131,13.6514195 22.2188367,13.6411374 C23.6170657,13.63179 25.4748558,13.9369822 26.6418741,13.0115909 C27.6544341,12.2091177 27.8565647,10.7878474 27.962874,9.59839236 C28.3218465,5.57340735 26.0683762,0.810913485 21.6048173,0.149118458" id="Fill-15"></path>
            </g>
        </g>
    </g>
</svg>