<?xml version="1.0" encoding="UTF-8"?>
<svg width="24px" height="21px" viewBox="0 0 24 21" version="1.1" xmlns="http://www.w3.org/2000/svg" xmlns:xlink="http://www.w3.org/1999/xlink">
    <!-- Generator: Sketch 51.3 (57544) - http://www.bohemiancoding.com/sketch -->
    <title>Group 61</title>
    <desc>Created with Sketch.</desc>
    <defs></defs>
    <g id="hero.md" stroke="none" stroke-width="1" fill="none" fill-rule="evenodd">
        <g id="Group-61" transform="translate(-3.000000, -4.000000)">
            <rect id="Rectangle-8" x="0" y="0" width="30" height="30"></rect>
            <g id="Group-32" transform="translate(3.000000, 4.000000)" fill="#2D2E2C">
                <path d="M21.1297705,18.0288918 C17.7964904,19.9778234 13.7006147,20.6282885 9.89255734,20.2956643 C7.95203887,20.126067 6.03120029,19.6838 4.2128611,18.9828252 C3.220667,18.6001021 2.2604527,18.1323749 1.34615814,17.5890887 C0.184225046,16.8987908 0.742231729,15.4742557 1.01447011,14.3371736 C1.54295697,12.1291237 2.45684154,10.0352337 3.47609548,8.01443886 C4.47074957,6.04210042 5.48262355,4.02910791 6.89260517,2.3154772 C7.29932275,1.82064733 7.68677045,1.31801518 8.26281703,1.03220474 C8.98400274,0.674120388 9.90403727,0.684797215 10.7014825,0.633055669 C11.4243082,0.585831243 12.1590239,0.474956502 12.7805802,0.968143774 C13.306607,1.38577196 13.6989747,2.15696738 13.8633837,2.79141729 C14.0778125,3.6217459 14.0126228,4.80071397 13.2606873,5.35549832 C12.7313805,5.74643444 11.9950248,5.7608071 11.3496887,5.81994029 C11.1762597,5.83554488 10.9343611,5.89180355 10.7576522,5.87003925 C10.2439252,5.80762088 9.33619065,5.23887452 9.79579791,4.59333714 C9.99177675,4.31697159 10.8261218,4.1839219 11.1409999,4.19254549 C11.5091777,4.20240102 11.5087677,3.63036949 11.1409999,3.62010331 C10.452204,3.60162419 8.98728272,4.0089862 8.89216328,4.87791564 C8.88355334,4.95306408 8.88355334,5.02451669 8.8892933,5.09350542 C8.28823687,6.38252694 8.1832775,7.85141193 8.12054787,9.25541466 C8.08569808,10.0225036 8.13448779,10.8047865 8.07749813,11.567769 C7.97089876,12.9910721 6.98567462,14.1273329 6.00783043,15.1132968 C5.74789197,15.374879 6.15173957,15.7793665 6.41167803,15.5177843 C7.35959239,14.5622083 8.13407779,13.6288072 8.46576582,12.4580521 C8.48831568,12.4428581 8.51168555,12.4293068 8.53300542,12.4042573 C9.88845736,10.7764518 11.8215959,10.0249675 13.8637937,10.8359957 C14.6222892,11.1374107 15.4750842,11.7254575 15.7559325,12.5405922 C15.839982,12.7845166 16.2512095,12.8395433 16.3069692,12.5405922 C16.9096656,9.30140714 21.8390663,10.1921009 22.9907495,12.5759078 C24.0251733,14.716201 23.078079,16.8897565 21.1297705,18.0288918 Z M23.0354392,11.5291681 C21.392989,9.46607667 17.0740746,9.11579462 15.9613413,11.7254575 C15.4726242,11.0236614 14.6772289,10.5070673 13.9047935,10.2348082 C11.9171253,9.53301216 10.0434364,10.0898497 8.6203349,11.4720882 C8.62607487,11.3731222 8.64001478,11.279084 8.64001478,11.1768328 C8.64001478,9.44677625 8.58958508,7.43747956 9.21975134,5.77600104 C9.68878855,6.24660272 10.5465035,6.44248143 11.0950802,6.41743195 C12.4923519,6.35337099 13.814184,6.24003236 14.3746507,4.75390019 C14.9002676,3.36057429 14.2910112,1.74796278 13.3242369,0.712721224 C12.642001,-0.0178201225 12.3853425,-0.0375311875 11.3972484,0.0203700659 C10.4239142,0.0770393777 9.44565999,0.128370276 8.48462571,0.301252742 C6.87497527,0.590348362 5.54043321,3.06285508 4.76635781,4.38513902 C2.4625815,8.32160296 0.341254113,12.6448965 0.000546137749,17.2568751 C-0.00683381838,17.3591263 0.0616357746,17.4507006 0.141995297,17.5036741 C6.23578907,21.5222674 15.2364656,22.4043376 21.6070077,18.4169534 C23.9255439,16.9661369 24.8656683,13.8275604 23.0354392,11.5291681 Z" id="Fill-120"></path>
                <path d="M14.5114904,15.0862292 C13.6099402,16.0125487 12.7911196,16.4082671 11.5885145,16.3217919 C10.4383722,16.2390764 9.3790305,16.0496767 8.41129666,15.2850284 C8.11024185,15.0481613 7.82896141,15.6154204 8.12678775,15.8508775 C9.26764829,16.7513484 10.5973743,16.9534374 11.9525245,16.998085 C13.1494797,17.0375628 14.0199559,16.4637241 14.9089958,15.549154 C15.1809944,15.2695192 14.7822783,14.8075344 14.5114904,15.0862292" id="Fill-121"></path>
                <path d="M9.5575096,12.837652 C9.83383411,12.2607665 10.3496109,11.9255928 10.8554106,11.6023895 C11.1889954,11.3896831 10.8853421,10.8344366 10.5504559,11.0480638 C9.95833197,11.426055 9.35796601,11.8399577 9.03565971,12.5139884 C8.85997459,12.8813904 9.38139069,13.2064352 9.5575096,12.837652" id="Fill-122"></path>
                <path d="M11.25,11.5 C11.5831476,11.5 11.583519,11 11.25,11 C10.9168524,11 10.916481,11.5 11.25,11.5" id="Fill-123"></path>
            </g>
        </g>
    </g>
</svg>